<?xml version="1.0" encoding="utf-8"?>
<!-- Generator: Adobe Illustrator 23.0.3, SVG Export Plug-In . SVG Version: 6.00 Build 0)  -->
<svg version="1.1" id="Capa_1" xmlns="http://www.w3.org/2000/svg" xmlns:xlink="http://www.w3.org/1999/xlink" x="0px" y="0px"
	 viewBox="0 0 1275.59 1275.59" style="enable-background:new 0 0 1275.59 1275.59;" xml:space="preserve">
<style type="text/css">
	.st0{fill:#FFFFFF;}
	.st1{fill-rule:evenodd;clip-rule:evenodd;fill:#FFFFFF;}
</style>
<g>
	<g>
		<g>
			<path class="st0" d="M1172.97,296.88c-33.28,15.06-69.91,24.2-105.83,30.23c17.05-2.86,42.18-33.73,52.23-46.21
				c15.33-19.04,28.07-40.74,35.24-64.17c0.91-1.83,1.61-4.13-0.22-5.51c-2.3-0.91-3.78-0.45-5.61,0.47
				c-40.09,21.48-81.56,37.07-125.69,48.1c-3.66,0.92-6.37,0-8.67-2.3c-3.65-4.13-7.09-8.02-10.99-11.24
				c-18.55-15.78-38.45-28.16-60.89-37.31c-29.46-12.01-61.66-17.1-93.39-15.04c-30.87,2-61.19,10.71-88.6,25.03
				c-27.46,14.35-51.96,34.3-71.47,58.38c-20.18,24.9-35.07,54.32-42.69,85.49c-7.36,30.09-6.75,59.85-2.26,90.26
				c0.68,5.04,0.24,5.72-4.33,5.04c-172.64-25.69-315.75-87.47-431.92-219.85c-5.04-5.75-7.78-5.75-11.91,0.44
				c-50.84,76.19-26.17,198.62,37.33,258.78c8.46,8.02,17.16,16.04,26.54,23.36c-3.42,0.7-45.69-3.87-83.34-23.36
				c-5.04-3.19-7.58-1.36-8.02,4.36c-0.47,8.23,0.24,15.81,1.36,24.74c9.76,77.24,63.25,148.69,136.5,176.56
				c8.7,3.66,18.32,6.87,27.7,8.46c-16.69,3.66-33.88,6.28-81.75,2.53c-5.96-1.14-8.23,1.83-5.96,7.55
				c35.97,98.04,113.61,127.2,171.76,143.82c7.78,1.36,15.57,1.36,23.38,3.19c-0.47,0.7-0.93,0.7-1.38,1.38
				c-19.29,29.4-86.16,51.28-117.29,62.17c-56.63,19.79-118.29,28.7-178.14,22.8c-9.58-1.41-11.59-1.3-14.19,0
				c-2.63,1.62-0.33,3.91,2.74,6.4c12.15,8.02,24.51,15.13,37.1,22c38.01,20.14,77.64,36.18,119.08,47.63
				c214,59.1,455.06,15.67,615.74-143.98c126.18-125.37,170.41-298.26,170.41-471.37c0-6.78,8.01-10.52,12.76-14.09
				c32.83-24.67,58.92-54.19,83.41-87.15c5.5-7.41,5.16-13.99,5.16-16.69c0-0.47,0-0.91,0-0.91
				C1176.89,294.11,1177.23,294.94,1172.97,296.88z"/>
		</g>
		<g>
			<path class="st1" d="M440.44,1052.6C529.18,1052.6,444.7,1052.6,440.44,1052.6C452.12,1052.6,439.97,1052.6,440.44,1052.6z"/>
		</g>
		<g>
			<path class="st1" d="M440.44,1052.6C439.06,1052.71,423.15,1052.6,440.44,1052.6C440.44,1052.6,437.67,1052.6,440.44,1052.6z"/>
		</g>
		<g>
			<path class="st1" d="M475.71,1053.51C475.71,1051.75,494.27,1053.51,475.71,1053.51C475.71,1052.6,477.98,1053.51,475.71,1053.51
				z"/>
		</g>
		<g>
			<path class="st1" d="M846.23,194.73c-1.15,0.91-2.74,0.91-4.34,0C843.48,194.73,845.08,194.73,846.23,194.73z"/>
		</g>
	</g>
</g>
</svg>
