<?xml version="1.0" encoding="utf-8"?>
<!-- Generator: Adobe Illustrator 23.0.3, SVG Export Plug-In . SVG Version: 6.00 Build 0)  -->
<svg version="1.1" id="Capa_1" xmlns="http://www.w3.org/2000/svg" xmlns:xlink="http://www.w3.org/1999/xlink" x="0px" y="0px"
	 viewBox="0 0 1275.59 1275.59" style="enable-background:new 0 0 1275.59 1275.59;" xml:space="preserve">
<style type="text/css">
	.st0{fill-rule:evenodd;clip-rule:evenodd;fill:#FFFFFF;}
</style>
<g>
	<g>
		<g>
			<path class="st0" d="M653.64,180.94c-238.54,0-432.61,194.06-432.61,432.6c0,83.91,23.82,164.51,69.1,234.46l-65.72,144.76
				c-6.06,13.35-3.85,28.98,5.66,40.13c7.28,8.54,17.85,13.26,28.74,13.26c3.33,0,6.69-0.44,9.99-1.35l181.07-49.68
				c62.51,33.43,132.62,51.03,203.76,51.03c238.54,0,432.61-194.07,432.61-432.61C1086.25,375.01,892.18,180.94,653.64,180.94z
				 M653.64,970.6c-63.18,0-125.35-16.81-179.78-48.61c-5.83-3.41-12.42-5.16-19.06-5.16c-3.35,0-6.71,0.45-10,1.35l-118.29,32.45
				l41.2-90.76c5.6-12.34,4.16-26.73-3.76-37.72c-44.07-61.09-67.37-133.22-67.37-208.61c0-196.88,160.17-357.05,357.05-357.05
				c196.88,0,357.05,160.17,357.05,357.05C1010.7,810.43,850.52,970.6,653.64,970.6z"/>
		</g>
		<g>
			<path class="st0" d="M819.97,678.33c-18.12-10.84-41.69-22.94-63.04-14.2c-16.37,6.7-26.83,32.33-37.43,45.42
				c-5.45,6.72-11.95,7.77-20.31,4.4c-61.46-24.48-108.57-65.52-142.48-122.05c-5.74-8.79-4.71-15.72,2.21-23.86
				c10.25-12.06,23.11-25.76,25.88-42.02c2.77-16.26-4.85-35.26-11.57-49.74c-8.59-18.5-18.19-44.88-36.72-55.34
				c-17.04-9.62-39.47-4.24-54.65,8.12c-26.19,21.33-38.83,54.75-38.45,87.88c0.11,9.41,1.27,18.8,3.46,27.89
				c5.28,21.85,15.38,42.25,26.75,61.66c8.57,14.63,17.88,28.82,27.93,42.47c32.88,44.66,73.78,83.47,121.14,112.48
				c23.66,14.49,49.15,27.2,75.54,35.92c29.6,9.78,55.97,19.96,87.93,13.89c33.47-6.35,66.46-27.06,79.74-59.32
				c3.93-9.54,5.9-20.18,3.7-30.26C865.05,700.81,836.83,688.42,819.97,678.33z"/>
		</g>
	</g>
</g>
</svg>
